Coordinates
version=1
nRows=6
nColumns=34
inDegrees=yes

Units are S.I. units (second, meters, Newtons, ...)
If the header above contains a line with 'inDegrees', this indicates whether rotational values are in degrees (yes) or radians (no).

endheader
time	pelvis_tilt	pelvis_list	pelvis_rotation	pelvis_tx	pelvis_ty	pelvis_tz	hip_flexion_r	hip_adduction_r	hip_rotation_r	knee_angle_r	ankle_angle_r	subtalar_angle_r	mtp_angle_r	hip_flexion_l	hip_adduction_l	hip_rotation_l	knee_angle_l	ankle_angle_l	subtalar_angle_l	mtp_angle_l	lumbar_extension	lumbar_bending	lumbar_rotation	arm_flex_r	arm_add_r	arm_rot_r	elbow_flex_r	pro_sup_r	arm_flex_l	arm_add_l	arm_rot_l	elbow_flex_l	pro_sup_l
      9.36666670	     -5.99810281	     -3.46701609	      6.46744886	     -2.30400486	      0.92969470	      0.61975259	      5.80907872	      1.30222932	     -5.40744261	      6.25192109	      9.60342566	     -1.40767980	      0.00000000	     -1.21902256	     -7.74081462	    -11.70924089	      0.05200303	     11.07998724	      4.89522680	      0.00000000	     -2.83207458	      4.21729269	     -1.05711283	      3.79167537	    -16.54736767	     87.40636232	      9.01436079	      0.00494529	     -4.28591931	    -14.75013150	     19.17611037	     33.97353143	     62.47360778
      9.38333330	     -6.16146233	     -3.37873800	      6.55236818	     -2.30282016	      0.93026395	      0.62145494	      5.76568890	      1.35268415	     -5.44497052	      5.81098088	      9.55052534	     -1.31158248	      0.00000000	     -0.94041492	     -7.71413698	    -11.96101002	      0.00000000	     10.85776161	      4.84671706	      0.00000000	     -2.90039670	      4.27685083	     -1.08279257	      3.97172749	    -16.40320099	     87.35944717	      9.06470974	      0.00686147	     -4.08020067	    -14.55109774	     19.23133929	     34.07511098	     62.46820570
      9.40000000	     -6.31289164	     -3.35427794	      6.60505390	     -2.29925512	      0.93143540	      0.62324387	      5.50479255	      1.48620896	     -5.51405802	      5.13100462	      9.01171817	     -0.88932394	      0.00000000	     -0.70477571	     -7.79555764	    -12.39608049	      0.00000000	     10.13108599	      4.89453576	      0.00000000	     -2.71513786	      4.33583044	     -1.17211898	      4.02947019	    -16.32940290	     87.16937285	      9.12391709	      0.00000000	     -4.04555555	    -14.44027741	     19.39400411	     34.15636726	     62.44080541
      9.41666670	     -6.45198981	     -3.28246735	      6.74283678	     -2.29557541	      0.93276312	      0.62516496	      5.29040315	      1.52881911	     -5.67658420	      4.75536357	      8.79115183	     -0.63261538	      0.00000000	     -0.54654130	     -7.82072442	    -12.65894519	      0.00000000	      9.86957727	      5.01145087	      0.00000000	     -2.61758969	      4.45146450	     -1.31794448	      4.02482602	    -16.16533750	     86.88072822	      9.22098933	      0.00000000	     -4.04653942	    -14.32961620	     19.62170371	     34.23375198	     62.40000267
      9.43333330	     -6.55481567	     -3.20263504	      6.91438528	     -2.29344511	      0.93321379	      0.62750939	      5.18883882	      1.57023359	     -5.70689639	      4.68101745	      8.79075370	     -0.58030041	      0.00000000	     -0.46728938	     -7.86349465	    -12.79844004	      0.00000000	      9.77205429	      5.03655158	      0.00000000	     -2.61511316	      4.50669173	     -1.40508872	      4.02692323	    -15.92915346	     86.80319920	      9.30852767	      0.00158881	     -3.97382368	    -14.14809404	     19.70733902	     34.29875103	     62.39185907
      9.45000000	     -6.62361731	     -3.22612368	      7.18688518	     -2.29194771	      0.93220253	      0.62936839	      4.93933117	      1.71802443	     -5.91147252	      4.39100492	      8.73811069	     -0.42862503	      0.00000000	     -0.41934048	     -8.02048365	    -13.04237133	      0.00000000	      9.29486336	      5.30552981	      0.00000000	     -2.50279554	      4.64820114	     -1.60523250	      4.03724437	    -15.77486824	     86.49695841	      9.39422125	      0.00000000	     -3.99872862	    -14.11534614	     19.94868473	     34.32701148	     62.35783708
